# xmcd CD database file
#
# Track frame offsets:
#	150
#	24010
#	48675
#	67887
#	92695
#	116555
#	152475
#
# Disc length: 4440 seconds
#
# Revision: 5
# Processed by: cddbd v1.5.1PL0 Copyright (c) Steve Scherf et al.
# Submitted via: CDex 1.51
#
DISCID=4a115607
DTITLE=浜崎あゆみ - fairyland
DYEAR=2005
DGENRE=J-POP
TTITLE0=fairyland
TTITLE1=alterna
TTITLE2=STEP you (DJ TAKI-SHIT More Step Up Remix)
TTITLE3=fairyland (Bright Field mix)
TTITLE4=fairyland (Instrumental)
TTITLE5=alterna (Instrumental)
TTITLE6=CCCD
EXTD=YEAR: 2005
EXTT0=
EXTT1=
EXTT2=
EXTT3=
EXTT4=
EXTT5=
EXTT6=
PLAYORDER=
